#N canvas 827 239 527 327 12;
#X obj 411 367 outlet~;
#X obj 411 277 +~;
#X obj 411 232 inlet~ frequency;
#X obj 544 287 osc~;
#X obj 411 323 phasor~;
#X obj 544 232 inlet fm_frequency;
#X obj 681 286 moses 1;
#X msg 623 286 0;
#X obj 544 329 *~;
#X obj 713 323 *~;
#X obj 760 287 *~ 0.005;
#X connect 1 0 4 0;
#X connect 2 0 1 0;
#X connect 2 0 10 0;
#X connect 3 0 8 0;
#X connect 4 0 0 0;
#X connect 5 0 3 0;
#X connect 5 0 6 0;
#X connect 6 0 7 0;
#X connect 6 1 9 1;
#X connect 7 0 8 1;
#X connect 8 0 1 1;
#X connect 9 0 8 1;
#X connect 10 0 9 0;
