#N canvas 827 239 527 327 12;
#X obj 193 652 *~;
#X obj 193 726 lop~ 5000;
#X obj 193 785 outlet~;
#X obj 419 420 s divine;
#X obj 656 420 s acid;
#X obj 723 420 s arpeggio;
#X obj 1188 286 + 12;
#X obj 1282 288 + 19;
#X obj 1188 447 *~ 0.7;
#X obj 1282 447 *~ 0.4;
#X msg 502 561 wet 0.6;
#X msg 419 561 damp 0.3;
#X obj 419 488 loadbang;
#X obj 419 519 bng 25 250 50 0 empty empty empty 17 7 0 10 #e4e4e4 #4d4d4d #373737;
#X obj 574 57 vsl 17 128 30 60 0 0 empty empty empty 0 -9 0 10 #e4e4e4 #4d4d4d #373737 0 1;
#X obj 569 204 int;
#X obj 1080 316 mtof;
#X obj 1188 316 mtof;
#X obj 1282 316 mtof;
#X obj 1188 402 fm_phasor;
#X obj 1282 402 fm_phasor;
#X obj 1394 447 *~ 0.4;
#X obj 1394 316 mtof;
#X obj 1394 402 fm_phasor;
#X obj 1394 288 + 24;
#X obj 1488 316 mtof;
#X obj 1488 402 fm_phasor;
#X obj 1488 288 + 28;
#X obj 1591 314 mtof;
#X obj 1591 402 fm_phasor;
#X obj 1591 286 + 31;
#X obj 1080 402 fm_phasor;
#X obj 1080 447 *~ 0.7;
#X obj 1719 316 / 16;
#X obj 1719 349 int;
#X obj 347 434 vsl 17 128 0 127 0 0 empty empty empty 0 -9 0 10 #e4e4e4 #4d4d4d #373737 0 1;
#X obj 342 599 / 127;
#X obj 213 402 s vibrato;
#X obj 1719 275 r vibrato;
#X obj 161 225 vsl 17 128 0 127 0 0 empty empty empty 0 -9 0 10 #e4e4e4 #4d4d4d #373737 0 1;
#X msg 196 163 1;
#X msg 235 163 2;
#X msg 280 163 3;
#X msg 319 163 4;
#X obj 345 779 dac~;
#X obj 1188 719 + 12;
#X obj 1282 721 + 19;
#X obj 1080 749 mtof;
#X obj 1188 749 mtof;
#X obj 1282 749 mtof;
#X obj 1188 873 *~ 0.7;
#X obj 1080 873 *~ 0.7;
#X obj 1488 447 *~ 0.5;
#X obj 1591 445 *~ 0.7;
#X obj 1080 249 int;
#X obj 488 420 s close_all;
#X obj 1330 519 *~;
#X obj 1236 934 *~;
#X obj 1488 742 / 16;
#X obj 1488 775 int;
#X obj 1488 712 r vibrato;
#X obj 1080 828 fm_osc;
#X obj 1188 828 fm_osc;
#X obj 1282 828 fm_osc;
#X obj 419 279 sel 0 1 2 3 4;
#X msg 158 165 0;
#X msg 366 166 stop;
#X obj 1785 424 r divine;
#X obj 1965 424 r acid;
#X obj 1965 456 r arpeggio;
#X obj 1965 496 r close_all;
#X obj 1965 800 r acid;
#X obj 1965 832 r arpeggio;
#X obj 1965 872 r close_all;
#X obj 1877 800 r divine;
#X msg 1878 465 0 300;
#X obj 1785 511 line~;
#X obj 1785 888 line~;
#X msg 1785 840 0.5 300;
#X msg 1878 841 0 300;
#X obj 1330 606 s~ sound1;
#X obj 1236 1006 s~ sound2;
#X obj 118 561 r~ sound1;
#X obj 103 593 r~ sound2;
#X obj 213 561 r~ sound3;
#X obj 193 593 r~ sound4;
#X obj 1236 971 lop~ 80;
#X obj 572 420 s bass;
#X obj 1785 800 r bass;
#X obj 1188 1134 + 12;
#X obj 1188 1164 mtof;
#X obj 1282 1164 mtof;
#X obj 1394 1164 mtof;
#X obj 1188 1288 *~ 0.7;
#X obj 1282 1288 *~ 0.4;
#X obj 1394 1288 *~ 0.4;
#X obj 1236 1349 *~;
#X obj 1488 1157 / 16;
#X obj 1488 1190 int;
#X obj 1488 1127 r vibrato;
#X obj 1965 1247 r arpeggio;
#X obj 1965 1287 r close_all;
#X obj 1877 1215 r divine;
#X obj 1785 1303 line~;
#X msg 1878 1256 0 300;
#X obj 1785 1215 r acid;
#X obj 1965 1215 r bass;
#X obj 1282 1136 + 16;
#X obj 1394 1136 + 19;
#X obj 1188 1243 fm_phasor;
#X obj 1282 1243 fm_phasor;
#X obj 1394 1243 fm_phasor;
#X obj 1872 424 r bass;
#X obj 1236 1431 s~ sound3;
#X obj 1236 1386 lop~ 2000;
#X msg 1785 1255 0.3 300;
#X obj 1282 873 *~ 0.8;
#X obj 1485 1880 *~;
#X obj 1186 1575 int;
#X obj 1186 1503 r vibrato;
#X obj 1965 1711 r close_all;
#X obj 1877 1639 r divine;
#X obj 1785 1727 line~;
#X msg 1878 1680 0 300;
#X obj 1965 1639 r bass;
#X obj 1485 1917 lop~ 2000;
#X obj 1785 1639 r arpeggio;
#X obj 1965 1671 r acid;
#X obj 1255 1672 + 1;
#X obj 1186 1672 f;
#X obj 1186 1751 sel 0 1 2 3;
#X obj 1435 1555 + 1;
#X obj 1386 1555 f;
#X obj 1385 1630 +;
#X obj 1386 1591 * 12;
#X msg 1177 1808 0;
#X msg 1213 1808 4;
#X msg 1249 1808 7;
#X msg 1288 1808 11;
#X obj 1186 1861 +;
#X obj 1186 1642 metro;
#X obj 1378 1672 + 12;
#X obj 1378 1702 mtof;
#X obj 1472 1702 mtof;
#X obj 1570 1700 mtof;
#X obj 1570 1787 *~ 0.2;
#X obj 1472 1787 *~ 0.2;
#X obj 1378 1787 *~ 0.7;
#X obj 1378 1751 fm_osc 0;
#X obj 1472 1751 fm_osc 0;
#X obj 1570 1751 fm_osc 0;
#X obj 1475 1600 > 60;
#X obj 1475 1630 sel 1;
#X msg 1546 1591 0;
#X obj 1485 1962 s~ sound4;
#X obj 1186 1609 + 200;
#X obj 1186 1542 * -1;
#X obj 1186 1710 mod 4;
#X obj 1472 1674 + 19;
#X obj 1570 1672 + 7;
#X msg 1785 1679 0.2 300;
#X obj 1330 559 lop~ 200;
#X msg 1785 464 0.7 300;
#X floatatom 1155 236 14 0 0 0 - - - 12;
#X obj 572 249 s midi;
#X obj 1080 204 r midi;
#X obj 1080 663 r midi;
#X obj 1080 1078 r midi;
#X obj 1070 1765 r midi;
#X obj 213 333 inlet v;
#X obj 419 229 inlet m;
#X obj 615 152 inlet p;
#X floatatom 1780 315 14 0 0 0 - - - 36;
#X connect 0 0 1 0;
#X connect 1 0 2 0;
#X connect 1 0 44 0;
#X connect 1 0 44 1;
#X connect 6 0 17 0;
#X connect 7 0 18 0;
#X connect 8 0 56 0;
#X connect 9 0 56 0;
#X connect 12 0 13 0;
#X connect 13 0 11 0;
#X connect 13 0 10 0;
#X connect 14 0 15 0;
#X connect 15 0 164 0;
#X connect 16 0 31 0;
#X connect 17 0 19 0;
#X connect 18 0 20 0;
#X connect 19 0 8 0;
#X connect 20 0 9 0;
#X connect 21 0 56 0;
#X connect 22 0 23 0;
#X connect 23 0 21 0;
#X connect 24 0 22 0;
#X connect 25 0 26 0;
#X connect 26 0 52 0;
#X connect 27 0 25 0;
#X connect 28 0 29 0;
#X connect 29 0 53 0;
#X connect 30 0 28 0;
#X connect 31 0 32 0;
#X connect 32 0 56 0;
#X connect 33 0 34 0;
#X connect 34 0 31 1;
#X connect 34 0 19 1;
#X connect 34 0 20 1;
#X connect 34 0 23 1;
#X connect 34 0 26 1;
#X connect 34 0 29 1;
#X connect 35 0 36 0;
#X connect 36 0 0 1;
#X connect 38 0 33 0;
#X connect 38 0 172 0;
#X connect 39 0 37 0;
#X connect 40 0 64 0;
#X connect 41 0 64 0;
#X connect 42 0 64 0;
#X connect 43 0 64 0;
#X connect 45 0 48 0;
#X connect 46 0 49 0;
#X connect 47 0 61 0;
#X connect 48 0 62 0;
#X connect 49 0 63 0;
#X connect 50 0 57 0;
#X connect 51 0 57 0;
#X connect 52 0 56 0;
#X connect 53 0 56 0;
#X connect 54 0 16 0;
#X connect 54 0 30 0;
#X connect 54 0 27 0;
#X connect 54 0 24 0;
#X connect 54 0 7 0;
#X connect 54 0 6 0;
#X connect 56 0 161 0;
#X connect 57 0 86 0;
#X connect 58 0 59 0;
#X connect 59 0 63 1;
#X connect 59 0 62 1;
#X connect 59 0 61 1;
#X connect 60 0 58 0;
#X connect 61 0 51 0;
#X connect 62 0 50 0;
#X connect 63 0 116 0;
#X connect 64 0 3 0;
#X connect 64 1 55 0;
#X connect 64 2 87 0;
#X connect 64 3 4 0;
#X connect 64 4 5 0;
#X connect 64 5 55 0;
#X connect 65 0 64 0;
#X connect 66 0 64 0;
#X connect 67 0 162 0;
#X connect 68 0 75 0;
#X connect 69 0 75 0;
#X connect 70 0 75 0;
#X connect 71 0 79 0;
#X connect 72 0 79 0;
#X connect 73 0 79 0;
#X connect 74 0 79 0;
#X connect 75 0 76 0;
#X connect 76 0 56 1;
#X connect 77 0 57 1;
#X connect 78 0 77 0;
#X connect 79 0 77 0;
#X connect 82 0 0 0;
#X connect 83 0 0 0;
#X connect 84 0 0 0;
#X connect 85 0 0 0;
#X connect 86 0 81 0;
#X connect 88 0 78 0;
#X connect 89 0 90 0;
#X connect 90 0 109 0;
#X connect 91 0 110 0;
#X connect 92 0 111 0;
#X connect 93 0 96 0;
#X connect 94 0 96 0;
#X connect 95 0 96 0;
#X connect 96 0 114 0;
#X connect 97 0 98 0;
#X connect 98 0 109 1;
#X connect 98 0 110 1;
#X connect 98 0 111 1;
#X connect 99 0 97 0;
#X connect 100 0 104 0;
#X connect 101 0 104 0;
#X connect 102 0 104 0;
#X connect 103 0 96 1;
#X connect 104 0 103 0;
#X connect 105 0 115 0;
#X connect 106 0 104 0;
#X connect 107 0 91 0;
#X connect 108 0 92 0;
#X connect 109 0 93 0;
#X connect 110 0 94 0;
#X connect 111 0 95 0;
#X connect 112 0 75 0;
#X connect 114 0 113 0;
#X connect 115 0 103 0;
#X connect 116 0 57 0;
#X connect 117 0 125 0;
#X connect 118 0 155 0;
#X connect 119 0 156 0;
#X connect 120 0 123 0;
#X connect 121 0 123 0;
#X connect 122 0 117 1;
#X connect 123 0 122 0;
#X connect 123 0 140 0;
#X connect 124 0 123 0;
#X connect 125 0 154 0;
#X connect 126 0 160 0;
#X connect 126 0 140 0;
#X connect 127 0 123 0;
#X connect 128 0 129 1;
#X connect 129 0 128 0;
#X connect 129 0 157 0;
#X connect 130 0 135 0;
#X connect 130 1 136 0;
#X connect 130 2 137 0;
#X connect 130 3 138 0;
#X connect 130 3 132 0;
#X connect 131 0 132 1;
#X connect 132 0 131 0;
#X connect 132 0 134 0;
#X connect 133 0 141 0;
#X connect 133 0 151 0;
#X connect 133 0 158 0;
#X connect 133 0 159 0;
#X connect 134 0 133 1;
#X connect 135 0 139 0;
#X connect 136 0 139 0;
#X connect 137 0 139 0;
#X connect 138 0 139 0;
#X connect 139 0 133 0;
#X connect 140 0 129 0;
#X connect 141 0 142 0;
#X connect 142 0 148 0;
#X connect 143 0 149 0;
#X connect 144 0 150 0;
#X connect 145 0 117 0;
#X connect 146 0 117 0;
#X connect 147 0 117 0;
#X connect 148 0 147 0;
#X connect 149 0 146 0;
#X connect 150 0 145 0;
#X connect 151 0 152 0;
#X connect 152 0 153 0;
#X connect 153 0 132 1;
#X connect 155 0 140 1;
#X connect 156 0 118 0;
#X connect 157 0 130 0;
#X connect 158 0 143 0;
#X connect 159 0 144 0;
#X connect 160 0 122 0;
#X connect 161 0 80 0;
#X connect 162 0 76 0;
#X connect 165 0 54 0;
#X connect 165 0 163 0;
#X connect 166 0 47 0;
#X connect 166 0 45 0;
#X connect 166 0 46 0;
#X connect 167 0 89 0;
#X connect 167 0 107 0;
#X connect 167 0 108 0;
#X connect 168 0 139 1;
#X connect 169 0 37 0;
#X connect 170 0 64 0;
#X connect 171 0 15 0;
