#N canvas 827 239 1300 820 12;
#X obj 50 50 netreceive -u -b 9999;
#X obj 50 90 oscparse;
#X obj 50 130 list trim;
#X obj 50 170 route synth;
#X obj 349 275 sel 1;
#X obj 88 562 loadbang;
#X msg 128 602 0;
#X obj 175 642 s mode_offset;
#X obj 50 210 route pitch mode vibrato volume panic;
#X msg 88 602 0;
#X floatatom 437 368 5 0 0 0 - - - 12;
#X msg 350 315 0 1000;
#X obj 41 416 main_synth;
#X obj 41 514 dac~;
#X obj 41 470 *~;
#X obj 19 358 * 127;
#X obj 127 329 * 24;
#X obj 115 370 + 30;
#X obj 350 366 line~;
#X obj 349 416 s~ master_volume;
#X obj 45 642 s~ master_volume;
#X obj 212 303 s~ master_volume;
#X obj 149 436 r~ master_volume;
#X obj 19 318 unpack f;
#X obj 127 289 unpack f;
#X connect 0 0 1 0;
#X connect 1 0 2 0;
#X connect 2 0 3 0;
#X connect 3 0 8 0;
#X connect 4 0 11 0;
#X connect 5 0 9 0;
#X connect 5 0 6 0;
#X connect 6 0 7 0;
#X connect 8 0 24 0;
#X connect 8 1 12 1;
#X connect 8 2 23 0;
#X connect 8 3 21 0;
#X connect 8 4 4 0;
#X connect 8 5 4 0;
#X connect 9 0 20 0;
#X connect 11 0 18 0;
#X connect 12 0 14 0;
#X connect 14 0 13 0;
#X connect 14 0 13 1;
#X connect 15 0 12 0;
#X connect 16 0 17 0;
#X connect 17 0 12 2;
#X connect 18 0 10 0;
#X connect 18 0 19 0;
#X connect 22 0 14 1;
#X connect 23 0 15 0;
#X connect 24 0 16 0;
