#N canvas 827 239 1300 820 12;
#X obj 50 50 netreceive -u -b 9999;
#X obj 50 90 oscparse;
#X obj 50 130 list trim;
#X obj 50 170 route synth;
#X obj 33 290 s pitch;
#X obj 115 290 s mode;
#X obj 201 290 s vibrato;
#X obj 301 290 s volume;
#X obj 384 290 s panic;
#X obj 33 322 print pitch;
#X obj 115 322 print mode;
#X obj 201 322 print vibrato;
#X obj 301 322 print volume;
#X obj 276 52 r volume;
#X obj 276 82 s master_volume;
#X obj 57 410 r panic;
#X obj 57 450 sel 1;
#X obj 57 591 s master_volume;
#X obj 244 410 loadbang;
#X obj 201 490 s master_volume;
#X msg 284 450 0;
#X obj 331 490 s mode_offset;
#X obj 50 210 route pitch mode vibrato volume panic;
#X msg 244 450 0;
#X obj 58 541 line;
#X floatatom 145 543 5 0 0 0 - - - 12;
#X msg 58 490 0 1000;
#X obj 586 290 main_synth;
#X obj 586 388 dac~;
#X obj 586 344 *~;
#X obj 695 290 r master_volume;
#X connect 0 0 1 0;
#X connect 1 0 2 0;
#X connect 2 0 3 0;
#X connect 3 0 22 0;
#X connect 13 0 14 0;
#X connect 15 0 16 0;
#X connect 16 0 26 0;
#X connect 18 0 23 0;
#X connect 18 0 20 0;
#X connect 20 0 21 0;
#X connect 22 0 4 0;
#X connect 22 0 9 0;
#X connect 22 0 27 1;
#X connect 22 1 5 0;
#X connect 22 1 10 0;
#X connect 22 2 6 0;
#X connect 22 2 11 0;
#X connect 22 2 27 2;
#X connect 22 3 7 0;
#X connect 22 3 12 0;
#X connect 22 3 27 0;
#X connect 22 4 8 0;
#X connect 22 5 8 0;
#X connect 23 0 19 0;
#X connect 24 0 17 0;
#X connect 24 0 25 0;
#X connect 26 0 24 0;
#X connect 27 0 29 0;
#X connect 29 0 28 0;
#X connect 29 0 28 1;
#X connect 30 0 29 1;
