#N canvas 827 239 1300 820 12;
#X obj 50 50 netreceive -u -b 9999;
#X obj 50 90 oscparse;
#X obj 50 130 list trim;
#X obj 50 170 route synth;
#X obj 349 275 sel 1;
#X obj 242 53 loadbang;
#X obj 50 210 route pitch mode vibrato volume panic;
#X msg 243 86 0;
#X obj 40 574 dac~;
#X obj 41 466 *~;
#X obj 19 358 * 127;
#X obj 127 329 * 24;
#X obj 115 370 + 30;
#X obj 19 318 unpack f;
#X obj 127 289 unpack f;
#X obj 406 50 loadbang;
#X obj 406 88 bng 25 250 50 0 empty empty empty 17 7 0 10 #e4e4e4 #4d4d4d #373737;
#X obj 40 517 free.rev~;
#X msg 566 130 delay 0.6;
#X msg 406 130 damp 0.1;
#X msg 489 130 wet 0.7;
#X obj 41 416 main_synth;
#X obj 215 289 s master_volume;
#X obj 221 427 r master_volume;
#X obj 349 358 s master_volume;
#X obj 242 121 s master_volume;
#X msg 350 315 0;
#X obj 221 466 sel 0 1;
#X msg 187 517 0 1000;
#X msg 273 517 1 1000;
#X obj 221 565 line;
#X connect 0 0 1 0;
#X connect 1 0 2 0;
#X connect 2 0 3 0;
#X connect 3 0 6 0;
#X connect 4 0 26 0;
#X connect 5 0 7 0;
#X connect 6 0 14 0;
#X connect 6 1 21 1;
#X connect 6 2 13 0;
#X connect 6 3 22 0;
#X connect 6 4 4 0;
#X connect 6 5 4 0;
#X connect 7 0 25 0;
#X connect 9 0 17 0;
#X connect 9 0 17 1;
#X connect 10 0 21 0;
#X connect 11 0 12 0;
#X connect 12 0 21 2;
#X connect 13 0 10 0;
#X connect 14 0 11 0;
#X connect 15 0 16 0;
#X connect 16 0 19 0;
#X connect 16 0 20 0;
#X connect 16 0 18 0;
#X connect 17 0 8 0;
#X connect 17 1 8 1;
#X connect 18 0 17 0;
#X connect 19 0 17 0;
#X connect 20 0 17 0;
#X connect 21 0 9 0;
#X connect 23 0 27 0;
#X connect 26 0 24 0;
#X connect 27 0 28 0;
#X connect 27 1 29 0;
#X connect 28 0 30 0;
#X connect 29 0 30 0;
#X connect 30 0 9 1;
