#N canvas 827 239 1300 820 12;
#X obj 50 50 netreceive -u -b 9999;
#X obj 50 90 oscparse;
#X obj 50 130 list trim;
#X obj 50 170 route synth;
#X obj 50 210 route pitch mode vibrato volume expression panic;
#X obj 50 250 s pitch;
#X obj 170 250 s mode;
#X obj 290 250 s vibrato;
#X obj 430 250 s volume;
#X obj 560 250 s expression;
#X obj 700 250 s panic;
#X obj 50 290 print pitch;
#X obj 170 290 print mode;
#X obj 290 290 print vibrato;
#X obj 430 290 print volume;
#X obj 880 120 r pitch;
#X obj 880 160 * 48;
#X obj 880 200 + 36;
#X obj 880 240 + 0;
#X obj 880 280 mtof;
#X obj 880 320 sig~;
#X obj 1030 120 r mode;
#X obj 1030 160 sel 0 1 2 3 4 5;
#X msg 1030 200 0;
#X msg 1070 200 0;
#X msg 1110 200 -12;
#X msg 1150 200 7;
#X msg 1190 200 -5;
#X msg 1230 200 12;
#X obj 1110 250 s mode_offset;
#X obj 1010 240 r mode_offset;
#X obj 880 370 +~;
#X obj 880 410 osc~;
#X obj 880 550 *~;
#X obj 880 590 lop~ 5000;
#X obj 880 630 dac~;
#X obj 1030 370 osc~ 5;
#X obj 1110 320 r vibrato;
#X obj 1110 360 * 20;
#X obj 1110 400 sig~;
#X obj 1030 440 *~;
#X obj 1030 520 r master_volume;
#X obj 1030 560 sig~;
#X obj 1180 320 r expression;
#X obj 1180 360 * 7000;
#X obj 1180 400 + 200;
#X obj 980 520 r volume;
#X obj 980 560 s master_volume;
#X obj 1160 520 r panic;
#X obj 1160 560 sel 1;
#X msg 1160 600 0;
#X obj 1160 640 s master_volume;
#X obj 1230 520 loadbang;
#X msg 1230 560 0.8;
#X obj 1230 600 s master_volume;
#X msg 1270 560 0;
#X obj 1270 600 s mode_offset;
#X connect 0 0 1 0;
#X connect 1 0 2 0;
#X connect 2 0 3 0;
#X connect 3 0 4 0;
#X connect 4 0 5 0;
#X connect 4 0 11 0;
#X connect 4 1 6 0;
#X connect 4 1 12 0;
#X connect 4 2 7 0;
#X connect 4 2 13 0;
#X connect 4 3 8 0;
#X connect 4 3 14 0;
#X connect 4 4 9 0;
#X connect 4 5 10 0;
#X connect 15 0 16 0;
#X connect 16 0 17 0;
#X connect 17 0 18 0;
#X connect 18 0 19 0;
#X connect 19 0 20 0;
#X connect 20 0 31 0;
#X connect 21 0 22 0;
#X connect 22 0 23 0;
#X connect 22 1 24 0;
#X connect 22 2 25 0;
#X connect 22 3 26 0;
#X connect 22 4 27 0;
#X connect 22 5 28 0;
#X connect 23 0 29 0;
#X connect 24 0 29 0;
#X connect 25 0 29 0;
#X connect 26 0 29 0;
#X connect 27 0 29 0;
#X connect 28 0 29 0;
#X connect 30 0 18 1;
#X connect 31 0 32 0;
#X connect 32 0 33 0;
#X connect 33 0 34 0;
#X connect 34 0 35 0;
#X connect 34 0 35 1;
#X connect 36 0 40 0;
#X connect 37 0 38 0;
#X connect 38 0 39 0;
#X connect 39 0 40 1;
#X connect 40 0 31 1;
#X connect 41 0 42 0;
#X connect 42 0 33 1;
#X connect 43 0 44 0;
#X connect 44 0 45 0;
#X connect 45 0 34 1;
#X connect 46 0 47 0;
#X connect 48 0 49 0;
#X connect 49 0 50 0;
#X connect 50 0 51 0;
#X connect 52 0 53 0;
#X connect 52 0 55 0;
#X connect 53 0 54 0;
#X connect 55 0 56 0;
