#N canvas 827 239 1300 820 12;
#X obj 50 50 netreceive -u -b 9999;
#X obj 50 90 oscparse;
#X obj 50 130 list trim;
#X obj 50 170 route synth;
#X obj 66 290 s pitch;
#X obj 174 277 s mode;
#X obj 291 284 s vibrato;
#X obj 430 290 s volume;
#X obj 613 261 s panic;
#X obj 33 346 print pitch;
#X obj 170 328 print mode;
#X obj 290 328 print vibrato;
#X obj 430 322 print volume;
#X obj 773 124 r pitch;
#X obj 773 164 * 48;
#X obj 773 244 + 0;
#X obj 773 284 mtof;
#X obj 773 324 sig~;
#X obj 1266 62 r mode;
#X obj 1266 102 sel 0 1 2 3 4 5;
#X msg 1238 210 0;
#X obj 1246 678 s mode_offset;
#X obj 773 374 +~;
#X obj 773 655 *~;
#X obj 773 701 lop~ 5000;
#X obj 773 756 dac~;
#X obj 970 204 osc~ 5;
#X obj 1037 130 r vibrato;
#X obj 1037 274 sig~;
#X obj 970 274 *~;
#X obj 648 590 r master_volume;
#X obj 648 620 sig~;
#X obj 480 106 r volume;
#X obj 480 136 s master_volume;
#X obj 241 434 r panic;
#X obj 241 474 sel 1;
#X obj 241 615 s master_volume;
#X obj 428 434 loadbang;
#X obj 385 514 s master_volume;
#X msg 468 474 0;
#X obj 515 514 s mode_offset;
#X obj 50 210 route pitch mode vibrato volume panic;
#X msg 428 474 0;
#X obj 242 565 line;
#X floatatom 329 567 5 0 0 0 - - - 12;
#X msg 242 514 0 1000;
#X obj 773 414 osc~;
#X obj 910 389 mtof;
#X obj 910 429 sig~;
#X obj 910 479 +~;
#X obj 910 519 osc~;
#X obj 989 389 mtof;
#X obj 989 429 sig~;
#X obj 989 479 +~;
#X obj 989 519 osc~;
#X obj 910 349 + 7;
#X obj 989 349 + 12;
#X obj 910 655 *~;
#X obj 989 655 *~;
#X obj 773 582 *~;
#X obj 910 582 *~;
#X obj 989 582 *~;
#X msg 1238 244 1;
#X msg 1238 284 0.4;
#X msg 1238 324 0.2;
#X obj 773 204 + 50;
#X msg 1317 210 0;
#X msg 1317 244 1;
#X msg 1317 284 0.4;
#X msg 1317 324 0.2;
#X msg 1400 210 0;
#X msg 1400 244 1;
#X msg 1400 284 0.4;
#X msg 1400 324 0.2;
#X msg 1477 210 0;
#X msg 1477 244 1;
#X msg 1477 284 0.4;
#X msg 1477 324 0.2;
#X msg 1557 210 0;
#X msg 1557 244 1;
#X msg 1557 284 0.4;
#X msg 1557 324 0.2;
#X msg 1638 210 0;
#X msg 1638 244 1;
#X msg 1638 284 0.4;
#X msg 1638 324 0.2;
#X obj 1037 234 * 50;
#X obj 970 144 * 5;
#X obj 970 172 sig~;
#X text 1459 526 TODO: Add complex synth;
#X connect 0 0 1 0;
#X connect 1 0 2 0;
#X connect 2 0 3 0;
#X connect 3 0 41 0;
#X connect 13 0 14 0;
#X connect 14 0 65 0;
#X connect 15 0 16 0;
#X connect 15 0 55 0;
#X connect 15 0 56 0;
#X connect 16 0 17 0;
#X connect 17 0 22 0;
#X connect 18 0 19 0;
#X connect 19 0 62 0;
#X connect 19 1 66 0;
#X connect 19 1 67 0;
#X connect 19 2 70 0;
#X connect 19 2 71 0;
#X connect 19 2 72 0;
#X connect 19 3 74 0;
#X connect 19 3 75 0;
#X connect 19 3 76 0;
#X connect 19 4 79 0;
#X connect 19 4 80 0;
#X connect 19 4 81 0;
#X connect 19 5 82 0;
#X connect 19 5 83 0;
#X connect 19 5 84 0;
#X connect 22 0 46 0;
#X connect 23 0 24 0;
#X connect 24 0 25 0;
#X connect 24 0 25 1;
#X connect 26 0 29 0;
#X connect 27 0 86 0;
#X connect 27 0 87 0;
#X connect 28 0 29 1;
#X connect 29 0 22 1;
#X connect 29 0 49 1;
#X connect 29 0 53 1;
#X connect 30 0 31 0;
#X connect 31 0 23 1;
#X connect 31 0 57 1;
#X connect 31 0 58 1;
#X connect 32 0 33 0;
#X connect 34 0 35 0;
#X connect 35 0 45 0;
#X connect 37 0 42 0;
#X connect 37 0 39 0;
#X connect 39 0 40 0;
#X connect 41 0 4 0;
#X connect 41 0 9 0;
#X connect 41 1 5 0;
#X connect 41 1 10 0;
#X connect 41 2 6 0;
#X connect 41 2 11 0;
#X connect 41 3 7 0;
#X connect 41 3 12 0;
#X connect 41 5 8 0;
#X connect 42 0 38 0;
#X connect 43 0 36 0;
#X connect 43 0 44 0;
#X connect 45 0 43 0;
#X connect 46 0 59 0;
#X connect 47 0 48 0;
#X connect 48 0 49 0;
#X connect 49 0 50 0;
#X connect 50 0 60 0;
#X connect 51 0 52 0;
#X connect 52 0 53 0;
#X connect 53 0 54 0;
#X connect 54 0 61 0;
#X connect 55 0 47 0;
#X connect 56 0 51 0;
#X connect 57 0 24 0;
#X connect 58 0 24 0;
#X connect 59 0 23 0;
#X connect 60 0 57 0;
#X connect 61 0 58 0;
#X connect 62 0 60 1;
#X connect 62 0 61 1;
#X connect 62 0 59 1;
#X connect 65 0 15 0;
#X connect 66 0 60 1;
#X connect 66 0 61 1;
#X connect 67 0 59 1;
#X connect 70 0 61 1;
#X connect 71 0 59 1;
#X connect 72 0 60 1;
#X connect 74 0 60 1;
#X connect 75 0 59 1;
#X connect 76 0 61 1;
#X connect 79 0 59 1;
#X connect 80 0 60 1;
#X connect 81 0 61 1;
#X connect 82 0 59 1;
#X connect 83 0 60 1;
#X connect 84 0 61 1;
#X connect 86 0 28 0;
#X connect 87 0 88 0;
#X connect 88 0 26 0;
